<svg id="Layer_1" data-name="Layer 1" xmlns="http://www.w3.org/2000/svg" viewBox="0 0 177.54 52.59"><defs><style>.cls-1{fill:#263ed3;}</style></defs><title>logo</title><path class="cls-1" d="M10.55,43.42H32.94v8.47H0V.7H10.55Z"/><path class="cls-1" d="M78.79,27.46a30.91,30.91,0,0,1-2.68,13.25,20.11,20.11,0,0,1-7.64,8.79,21.18,21.18,0,0,1-11.41,3.09A21.4,21.4,0,0,1,45.7,49.54,20.42,20.42,0,0,1,38,40.8a30,30,0,0,1-2.78-13.06V25.21A30.69,30.69,0,0,1,37.92,11.9a20.22,20.22,0,0,1,7.7-8.82A21.15,21.15,0,0,1,57,0,21.2,21.2,0,0,1,68.36,3.08a20.28,20.28,0,0,1,7.7,8.82,30.6,30.6,0,0,1,2.73,13.27ZM68.1,25.14q0-8.05-2.89-12.24A9.38,9.38,0,0,0,57,8.72a9.4,9.4,0,0,0-8.19,4.13Q45.92,17,45.88,25v2.5q0,7.83,2.88,12.16A9.38,9.38,0,0,0,57.06,44a9.26,9.26,0,0,0,8.15-4.17q2.85-4.17,2.89-12.15Z"/><path class="cls-1" d="M127,45.42a18.22,18.22,0,0,1-8,5.29,33.56,33.56,0,0,1-11.53,1.88,22.8,22.8,0,0,1-11.66-2.9A19.28,19.28,0,0,1,88,41.27a29.61,29.61,0,0,1-2.8-13V24.82a31.35,31.35,0,0,1,2.59-13.27A19.06,19.06,0,0,1,95.22,3a21.49,21.49,0,0,1,11.41-3q9.11,0,14.24,4.34T127,17H116.68c-.47-2.93-1.5-5.07-3.11-6.43a9.91,9.91,0,0,0-6.62-2,9.38,9.38,0,0,0-8.2,4q-2.81,4.05-2.84,12v3.27q0,8.06,3,12.17t9,4.11q5.94,0,8.47-2.53V32.77h-9.6V25H127Z"/><path class="cls-1" d="M177.54,27.46a30.91,30.91,0,0,1-2.67,13.25,20.07,20.07,0,0,1-7.65,8.79,22.63,22.63,0,0,1-22.76,0,20.38,20.38,0,0,1-7.74-8.74A30,30,0,0,1,134,27.74V25.21a30.69,30.69,0,0,1,2.72-13.31,20.28,20.28,0,0,1,7.7-8.82,22.54,22.54,0,0,1,22.75,0,20.26,20.26,0,0,1,7.69,8.82,30.6,30.6,0,0,1,2.73,13.27Zm-10.69-2.32q0-8.05-2.88-12.24a10.19,10.19,0,0,0-16.42-.05Q144.67,17,144.63,25v2.5q0,7.83,2.89,12.16a10.09,10.09,0,0,0,16.45.16q2.85-4.17,2.88-12.15Z"/></svg>