<?xml version="1.0" encoding="utf-8"?>
<!-- Generator: Adobe Illustrator 26.0.3, SVG Export Plug-In . SVG Version: 6.00 Build 0)  -->
<svg version="1.1" id="Layer_1" xmlns="http://www.w3.org/2000/svg" xmlns:xlink="http://www.w3.org/1999/xlink" x="0px" y="0px"
	 viewBox="0 0 1027 1024" style="enable-background:new 0 0 1027 1024;" xml:space="preserve">
<g>
	<path d="M1012.9,937.6L764.4,686.3c59.1-75.8,88.6-162.4,88.6-259.9c0-77.5-19-148.9-57-214.3c-38.1-65.3-90-117-155.7-155.1
		C574.5,19,503,0,426,0S277.5,19,212.2,57C146.8,95.1,95.1,146.8,57,212.2C19,277.5,0,349,0,426.5s19,148.9,57,214.3
		c38.1,65.4,89.8,117.1,155.1,155.1c65.4,38.1,136.8,57,214.3,57c100.6,0,189.7-31.5,267.2-94.3l246.9,249.7
		c10.5,10.5,22.5,15.7,36.1,15.7s25.5-5,35.4-14.9s14.9-22,14.9-36.1C1027,958.8,1022.3,947,1012.9,937.6z M742.1,500.8
		c-5.8,24.4-14,47.3-24.6,68.5s-23.4,41.3-38.1,60.3c-14.8,19-31.6,35.9-50.2,50.7c-18.6,14.8-38.6,27.5-59.8,38.1
		s-44.1,18.8-68.5,24.6s-49.2,8.7-74.3,8.7c-59.2,0-113.7-14.7-163.6-43.9S173.7,639,144.8,589.1c-29-49.9-43.4-104.1-43.4-162.6
		c0-58.6,14.5-112.7,43.4-162.6s68.3-89.5,118.2-118.7s104.2-43.9,163.1-43.9s113.2,14.7,163.1,43.9s89.3,68.8,118.2,118.7
		c29,49.9,43.4,104.1,43.4,162.6C750.8,451.6,747.9,476.4,742.1,500.8z"/>
</g>
</svg>
