<?xml version="1.0" encoding="utf-8"?>
<!-- Generator: Adobe Illustrator 23.0.6, SVG Export Plug-In . SVG Version: 6.00 Build 0)  -->
<svg version="1.1" id="Layer_1" xmlns="http://www.w3.org/2000/svg" xmlns:xlink="http://www.w3.org/1999/xlink" x="0px" y="0px"
	 viewBox="0 0 459.4 167.6" style="enable-background:new 0 0 459.4 167.6;" xml:space="preserve">
<style type="text/css">
	.st0{fill:#1D1D1B;}
	.st1{fill:#929292;}
	.st2{fill:#FFFFFF;}
	.st3{fill:none;stroke:#FFFFFF;stroke-width:3;}
	.st4{fill:#006E73;}
</style>
<g>
	<g>
		<path class="st0" d="M188.9,38.6V34h-25.3v48.5h5.3c0,0,0-22.4,0-23.1c0.7,0,18.7,0,18.7,0v-4.5c0,0-18,0-18.7,0V38.6
			C169.6,38.6,188.9,38.6,188.9,38.6z"/>
		<path class="st0" d="M216.2,49.8c-2.3-2.3-5.4-3.4-9.6-3.4c-6.9,0-11.5,3.1-12.1,3.6l-0.2,0.2l0.1,0.2l1.8,3l0.2,0.3l0.3-0.2
			c0,0,0.1,0,0.1-0.1c3.6-2.1,7-2.6,9.2-2.6c2.9,0,5,0.6,6.3,1.9c1.5,1.6,1.6,3.9,1.6,7v0.9h-1.4c-5,0-20.2,0-20.2,11.6
			c0,6.5,4.6,10.8,11.4,10.8c3.5,0,7.3-1.1,10.6-3v2.3h4.7V60C219,54.8,218.6,52.3,216.2,49.8z M214,76c-0.1,0-0.1,0.1-0.2,0.1
			c-1.4,0.7-5.1,2.6-9,2.6c-5.3,0-7.2-3.2-7.2-6.2c0-4.9,5-7.4,14.9-7.4h1.6V76H214z"/>
		<polygon class="st0" points="252.5,47.4 252.4,47.6 241.4,76.5 230.4,47.6 230.3,47.4 224.8,47.4 224.9,47.8 238.3,82.2 
			238.4,82.4 244,82.4 244.1,82.2 257.6,47.8 257.8,47.4 		"/>
		<path class="st0" d="M284.3,47L284.3,47c-0.4-0.2-1.4-0.6-3.7-0.6c-5.3,0-8.7,2.8-10.5,4.8v-3.9h-4.8v35.1h5V56.9
			c0,0,0.1-0.1,0.1-0.2c3-4.6,7.1-5.6,10-5.6c1.3,0,2.1,0.1,2.7,0.2h0.1h0.3l0.1-0.3l1-3.6l0.1-0.3L284.3,47z"/>
		<path class="st0" d="M301.4,62.3l-0.9-0.4l-1.2-0.5c-3.3-1.3-6-2.4-6-5.7c0-2.8,2.9-4.8,7-4.8c2.6,0,5.4,0.8,8,2.3h0.1l0.3,0.2
			l0.2-0.3l1.7-3.1l0.1-0.2l-0.2-0.2c-0.4-0.4-4.6-3.2-10.6-3.2c-7,0-11.8,3.9-11.8,9.4c0,6.4,4.4,8.1,9.5,10.1l0.2,0.1l1,0.4
			c3.4,1.3,7.3,2.7,7.3,6.7c0,3.5-2.9,5.6-7.9,5.6c-4.8,0-9.1-2.8-9.2-2.8l-0.3-0.2l-0.2,0.3l-1.9,3.3l-0.1,0.2l0.2,0.2
			c0.4,0.4,5.2,3.5,11.8,3.5c7.9,0,12.8-4.1,12.8-10.6C311.5,66.2,305.9,64,301.4,62.3z"/>
		<polygon class="st0" points="347.4,81.8 329.3,63.3 345.9,48 346.6,47.4 339.9,47.4 339.8,47.5 324.4,62.1 324.4,30.2 319.4,30.2 
			319.4,82.4 324.4,82.4 324.4,64.8 341.2,82.3 341.3,82.4 348,82.4 		"/>
		<path class="st0" d="M377.9,51.5c-2.8-3.3-6.8-5-11.5-5c-9.9,0-16.3,7.2-16.3,18.4s6.2,18.4,15.9,18.4c9.8,0,16.1-7.1,16.1-18.1
			C382.2,59.5,380.7,54.8,377.9,51.5z M366.2,78.8c-6.4,0-10.9-5.8-10.9-14c0-8.4,4.2-13.8,10.8-13.8c6.3,0,10.9,5.9,10.9,14.1
			C377.1,73.6,373,78.8,366.2,78.8z"/>
		<polygon class="st0" points="413.6,47.4 413.5,47.6 402.5,76.5 391.4,47.6 391.3,47.4 385.8,47.4 386,47.8 399.4,82.2 399.5,82.4 
			405.1,82.4 405.2,82.2 418.6,47.8 418.8,47.4 		"/>
	</g>
	<g>
		<polygon class="st1" points="195.9,144.8 173.5,120.7 194.8,97.6 195.4,97 189.2,97 189.1,97.1 168.8,118.9 168.8,97 163.6,97 
			163.6,145.4 168.8,145.4 168.8,123.2 189.7,145.3 189.8,145.4 196.5,145.4 		"/>
		<path class="st1" d="M226.1,114.5c-2.8-3.3-6.8-5-11.5-5c-9.9,0-16.3,7.2-16.3,18.4s6.2,18.4,15.9,18.4c9.8,0,16.1-7.1,16.1-18.1
			C230.4,122.5,228.9,117.8,226.1,114.5z M214.4,141.8c-6.4,0-10.9-5.8-10.9-14c0-8.4,4.2-13.8,10.8-13.8c6.3,0,10.9,5.9,10.9,14.1
			C225.2,136.6,221.2,141.8,214.4,141.8z"/>
		<path class="st1" d="M282.7,112.5c-1.9-1.9-4.7-3-7.9-3c-4.2,0-7.9,1.2-12.4,3.9c-2-2.7-4.8-3.9-8.6-3.9c-4.5,0-8.8,2.1-10.5,3.1
			v-2.2h-4.8v35.1h5v-28.2c0.9-0.5,5.3-3.1,9.9-3.1c2,0,3.7,0.6,4.8,1.7c1.8,1.8,1.8,4.8,1.8,9.9v19.8h5v-20.3V125
			c0-2.6,0-6.1-0.6-7.7c1.3-0.7,5.6-2.9,10-2.9c2.2,0,3.7,0.5,4.9,1.7c1.9,1.9,1.9,6.8,1.9,8.6v21h5v-19.3
			C286.2,120.2,286.2,115.9,282.7,112.5z"/>
		<path class="st1" d="M341.3,112.5c-1.9-1.9-4.7-3-7.9-3c-4.2,0-7.9,1.2-12.4,3.9c-2-2.7-4.8-3.9-8.6-3.9c-4.5,0-8.8,2.1-10.5,3.1
			v-2.2h-4.8v35.1h5v-28.2c0.9-0.5,5.3-3.1,9.9-3.1c2,0,3.7,0.6,4.8,1.7c1.8,1.8,1.8,4.8,1.8,9.9v19.8h5v-20.3V125
			c0-2.6,0-6.1-0.6-7.7c1.3-0.7,5.6-2.9,10-2.9c2.2,0,3.7,0.5,4.9,1.7c1.9,1.9,1.9,6.8,1.9,8.6v21h5v-19.3
			C344.8,120.2,344.8,115.9,341.3,112.5z"/>
		<path class="st1" d="M377.1,110.4v28.1c0,0-0.1,0-0.1,0.1c-3.7,2.1-7.1,3.1-10,3.1c-2.1,0-3.8-0.7-5.1-2c-1.9-1.9-1.9-4.9-1.9-8.5
			v-20.8h-5v20v1c0,3.7-0.1,8.4,3.2,11.6c2.1,2.1,5,3.2,8.6,3.2c5,0,9.1-2.1,10.8-3.1v2.4h4.7v-35.1H377.1z"/>
		<path class="st1" d="M417.5,112.5c-2.6-2.6-6.2-3-8.2-3c-5,0-9.3,2.2-10.9,3.1v-2.2h-4.9v35.1h5v-28.2c0.7-0.4,5.5-3.2,10.2-3.2
			c2,0,4,0.7,5.1,1.8c1.9,1.9,1.9,4.8,1.9,8.8v20.8h5v-21.1C420.7,118,420.2,115.2,417.5,112.5z"/>
		<path class="st1" d="M445.4,109.5c-9.7,0-16,7.3-16,18.6c0,11,6.4,18,16.3,18c7.3,0,12.4-3.4,12.5-3.7l0.1-0.2l-0.1-0.2l-1.9-3.3
			l-0.2-0.3l-0.3,0.2c0,0-0.1,0.1-0.2,0.1c-3,1.7-6.2,2.6-9.6,2.6c-6.9,0-11.3-4.7-11.4-12.3h24.6v-0.4c0-0.4,0-1,0.1-1.5
			c0-0.4,0.1-0.7,0.1-0.8C459.3,116.2,453.9,109.5,445.4,109.5z M454.2,124.7h-19.5c0.5-6.5,4.8-10.9,10.8-10.9
			C452.2,113.9,454.1,120.5,454.2,124.7z"/>
	</g>
	<g>
		<path class="st2" d="M5,12l-3.5,1.3v76.8c0.1,35.7,24.9,66.8,60.3,75.7l1.4,0.3l1.4-0.3c35.4-8.9,60.2-40,60.3-75.7V13.2l-3.5-1.3
			C102.4,5,82.8,1.5,63.2,1.5C43.4,1.5,23.8,5,5,12z"/>
		<path class="st3" d="M5,12l-3.5,1.3v76.8c0.1,35.7,24.9,66.8,60.3,75.7l1.4,0.3l1.4-0.3c35.4-8.9,60.2-40,60.3-75.7V13.2l-3.5-1.3
			C102.4,5,82.8,1.5,63.2,1.5C43.4,1.5,23.8,5,5,12z"/>
		<path class="st4" d="M124.8,74.2V21.6C67.5,24.2,51.9,50.4,53.3,60c1.3,7.5,2.1,9.4,7.4,15.9s8.2,9,15.9,23.4
			C82.7,84,102,74.5,124.8,74.2z"/>
		<path class="st4" d="M50.4,43c9.9-17.5,39.2-28.7,74.4-29.5v-0.2l-3.5-1.3C104,5.6,86.2,2.2,68.2,1.6C56.5,14.5,50.5,28.3,50.4,43
			z"/>
		<path class="st4" d="M74.8,121.1c-2.6-19.3-13.9-30.6-17.8-36C53.7,80.8,32.5,60.4,1.5,61v29.1c0,1.9,0.1,3.9,0.2,5.8
			C34,96.2,62.3,106,74.8,121.1z"/>
		<path class="st4" d="M81.8,111.9c0.3,1.3,2.7,11.6,2.4,19.4c-0.7,18.4-7.9,29-9.5,31.2c29.9-11.8,50-40.3,50.1-72.4v-7.7
			C99.4,82.6,78.8,99.6,81.8,111.9z"/>
		<path class="st4" d="M46,65.2c-3.6-9.9-3.7-16.8-3.7-21.7c0-14.9,4.7-28.6,15.3-41.9C39.7,2.2,22,5.7,5,12l-3.5,1.3v39.6
			C18.2,53,33.1,57.2,46,65.2z"/>
		<path class="st4" d="M73.9,139.6c1.5-17.1-32.4-34.9-71.1-35.5c5.6,29.6,28.3,54,59,61.7c0,0,1,0.2,1.3,0.3
			C72.2,151.7,73.5,143.7,73.9,139.6z"/>
	</g>
</g>
</svg>
